<svg width="400" height="300" viewBox="0 0 8393 1792" fill="none" xmlns="http://www.w3.org/2000/svg">
<path d="M785.945 1.4351C784.078 2.2351 775.678 4.2351 767.278 6.10176C745.412 10.7684 729.412 16.3684 707.412 26.9018C676.478 41.5684 660.745 50.7684 507.945 143.035C422.745 194.635 412.878 200.368 369.278 224.235C354.612 232.368 335.412 243.035 326.612 247.968C317.812 252.902 301.678 261.968 290.612 267.968C279.678 274.102 262.212 283.968 251.945 289.968C234.345 300.368 218.878 308.902 187.945 325.302C150.612 345.035 116.212 365.968 90.6118 384.368C49.2785 414.102 23.8118 447.302 12.4785 486.768C2.87846 520.368 0.211794 543.568 0.078461 598.635C-0.321539 781.035 0.878461 1206.5 2.07846 1227.3C5.54513 1292.5 15.5451 1326.24 41.9451 1361.57C55.0118 1378.9 80.2118 1400.1 110.612 1419.17C125.278 1428.37 198.212 1471.84 209.945 1478.24C213.945 1480.5 220.345 1483.97 223.945 1485.97C227.678 1488.1 242.612 1496.24 257.278 1504.37C286.745 1520.5 327.012 1542.64 364.612 1563.3C399.145 1582.24 427.678 1598.64 447.945 1611.04C469.545 1624.37 482.612 1632.24 520.612 1654.64C537.145 1664.37 559.945 1677.97 571.278 1685.04C689.545 1758.1 726.078 1775.97 784.745 1789.3C798.478 1792.5 803.545 1792.37 820.345 1788.77C865.278 1779.04 905.278 1761.17 973.412 1720.37C995.412 1707.17 1032.48 1684.9 1055.95 1670.9C1079.41 1656.9 1108.21 1639.44 1119.95 1632.24C1146.88 1615.84 1162.35 1606.9 1211.28 1579.57C1232.88 1567.57 1259.68 1552.64 1270.61 1546.37C1281.68 1540.1 1306.21 1526.5 1325.28 1515.97C1344.35 1505.44 1365.95 1493.17 1373.28 1488.9C1388.48 1479.84 1413.15 1465.97 1430.61 1456.64C1477.95 1431.17 1522.21 1401.84 1542.48 1382.64C1560.61 1365.44 1575.95 1343.44 1584.88 1322.24C1590.35 1308.77 1596.08 1285.7 1598.48 1267.17C1603.15 1231.57 1603.55 1210.77 1603.15 1035.97C1602.88 941.035 1602.88 795.702 1603.01 713.168C1603.28 584.768 1603.15 559.835 1601.28 540.502C1598.08 506.502 1590.35 476.768 1579.15 456.102C1561.41 423.168 1528.35 391.968 1479.95 362.368C1444.48 340.635 1410.21 320.768 1397.15 314.235C1388.88 310.102 1376.88 303.568 1370.48 299.835C1299.95 258.102 1251.28 236.502 1219.28 232.502C1157.95 224.902 1117.95 239.835 985.279 319.968C969.145 329.702 945.145 344.102 931.945 351.968C918.745 359.835 894.478 374.368 877.945 384.235C861.412 394.102 841.412 405.968 833.278 410.635C825.278 415.168 809.278 424.502 797.945 431.302C786.612 438.102 766.478 449.702 753.278 457.302C740.078 464.768 719.145 477.168 706.612 484.635C683.945 498.235 675.012 503.568 637.278 525.302C626.345 531.702 605.945 543.568 591.945 551.835C578.078 560.102 557.012 572.102 545.278 578.368C469.945 618.635 449.545 631.302 430.745 649.168C409.145 669.835 403.278 682.502 398.478 718.635C396.612 733.302 396.478 743.435 397.412 803.302C398.878 887.702 398.878 977.568 397.412 1018.1C394.878 1083.7 403.278 1117.04 428.078 1139.97C445.278 1155.97 469.945 1171.57 509.945 1192.1C516.212 1195.3 531.812 1203.97 544.612 1211.44C557.412 1218.77 577.012 1230.1 587.945 1236.24C631.812 1261.17 658.478 1276.9 684.612 1293.17C733.145 1323.44 751.278 1332.77 777.278 1340.64C792.345 1345.3 794.078 1345.57 807.278 1344.9C818.478 1344.5 823.145 1343.57 830.612 1340.64C853.012 1331.7 885.412 1313.97 944.345 1278.37C991.279 1249.97 1004.35 1242.5 1052.61 1215.57C1102.08 1188.1 1140.75 1165.7 1153.55 1157.17C1181.81 1138.1 1195.41 1120.5 1201.68 1094.64C1206.88 1073.7 1207.41 1057.04 1206.21 955.968C1205.68 903.568 1205.68 838.368 1206.35 811.302C1207.81 748.102 1207.15 717.702 1203.95 708.635C1200.61 699.168 1195.81 693.435 1188.88 690.368C1177.95 685.435 1166.88 688.635 1141.95 703.835C1135.01 708.102 1126.35 713.168 1122.61 715.168C1119.01 717.035 1102.48 726.768 1085.95 736.768C1033.01 768.768 1005.55 784.768 965.945 807.035C963.412 808.368 956.212 812.635 949.945 816.368C943.678 819.968 925.678 830.235 909.945 838.902C894.212 847.702 875.545 858.635 868.612 863.302C837.945 883.568 819.678 907.168 807.678 941.968C802.745 956.235 802.612 957.035 802.745 975.302C802.745 985.568 803.278 1000.1 803.812 1007.44C804.878 1020.37 804.878 1021.04 802.212 1022.5C800.212 1023.57 798.078 1023.44 793.812 1021.97C786.878 1019.44 750.212 1000.5 737.678 992.768C709.678 975.702 684.745 953.835 675.412 938.235C660.478 912.902 658.612 892.502 667.945 857.302C675.278 829.702 684.078 814.635 702.878 797.302C719.545 781.968 740.478 768.902 808.612 731.302C849.412 708.768 925.945 665.835 928.878 663.835C930.745 662.368 932.612 661.302 933.012 661.302C934.478 661.302 972.612 638.902 1041.95 597.302C1143.15 536.768 1148.75 533.702 1175.28 525.702C1187.01 522.235 1189.68 521.968 1209.95 521.968C1233.55 521.968 1236.21 522.502 1259.95 531.702C1304.21 548.635 1338.08 585.035 1343.15 620.768C1348.08 655.968 1349.01 674.635 1348.08 723.035C1345.95 845.168 1345.68 971.968 1347.41 1025.3C1349.55 1089.17 1349.41 1112.77 1346.48 1137.97C1341.68 1180.9 1339.55 1189.17 1328.75 1205.57C1314.88 1226.64 1291.81 1245.3 1252.61 1267.3C1244.88 1271.57 1230.48 1279.7 1220.61 1285.44C1200.35 1296.9 1135.15 1333.84 1125.95 1338.9C1104.75 1350.64 1061.95 1374.77 1051.28 1381.04C1006.35 1407.17 975.412 1425.7 941.412 1447.04C911.012 1466.1 899.945 1472.24 877.278 1483.3C850.212 1496.5 842.878 1499.17 822.612 1503.3C803.812 1507.17 797.545 1507.17 777.945 1503.17C751.278 1497.7 723.412 1483.44 638.612 1432.37C621.012 1421.7 604.478 1411.84 601.945 1410.37C599.412 1408.9 588.612 1402.37 577.945 1395.97C549.145 1378.64 490.745 1345.3 442.078 1318.37C392.878 1291.04 344.345 1263.17 326.212 1251.7C277.812 1221.3 264.212 1200.5 257.678 1147.3C255.945 1132.24 255.812 1092.1 257.412 913.302C257.812 867.702 257.412 812.902 256.345 774.635C253.945 682.768 254.612 661.168 261.412 619.302C264.345 601.302 272.212 586.102 286.078 571.302C303.945 552.502 323.012 539.302 377.945 507.968C393.678 498.902 408.745 490.235 411.278 488.635C413.812 487.035 424.345 481.302 434.612 475.968C455.145 465.302 460.612 462.102 513.145 431.435C532.878 419.835 562.878 402.502 579.812 392.768C644.745 355.435 665.412 343.302 722.612 309.302C736.612 300.902 755.812 289.568 765.278 283.835C774.878 278.235 793.145 267.302 805.945 259.702C818.745 251.968 841.945 238.235 857.278 229.035C872.745 219.835 898.478 204.368 914.612 194.635C960.212 167.035 979.812 157.702 1005.41 151.302C1025.81 146.235 1039.95 146.635 1059.41 152.902C1070.88 156.635 1076.88 157.835 1084.21 157.835C1100.75 157.968 1101.95 151.968 1088.08 138.902C1081.95 133.035 1073.55 127.968 1045.41 112.635C1040.48 109.835 1029.95 103.702 1022.08 98.9018C952.079 55.5684 900.745 27.1684 874.745 17.3018C840.878 4.36843 797.945 -3.3649 785.945 1.4351Z" fill="#E40707"/>
<path d="M2583.86 354.485C2573.25 355.614 2551.34 359.002 2534.85 362.164C2346.93 398.076 2195.15 524.332 2129.88 698.245C2101.87 773.456 2089 865.833 2095.78 942.626C2103.91 1033.65 2120.17 1097.79 2152.47 1163.97C2215.48 1294.07 2325.93 1383.05 2470.93 1421.22C2512.49 1432.07 2577.76 1440.65 2620.22 1440.65C2648.91 1440.65 2705.37 1434.32 2732.93 1428C2783.52 1416.48 2837.73 1390.28 2875.9 1358.66C2881.77 1353.92 2886.74 1350.3 2886.74 1350.76C2887.19 1351.43 2887.19 1352.11 2889.68 1386.44C2891.71 1413.55 2893.97 1418.74 2907.52 1425.06C2916.33 1428.9 2923.33 1429.36 2998.99 1429.36C3087.98 1429.36 3091.14 1428.9 3100.63 1416.93L3105.6 1410.61V1116.09C3105.6 791.073 3106.5 812.53 3091.14 805.077C3084.14 801.915 3064.72 801.463 2894.42 801.463C2688.89 801.463 2698.37 800.785 2687.98 814.111C2683.47 819.984 2683.24 822.468 2683.24 905.133C2683.24 989.153 2683.24 990.508 2687.98 995.477C2698.37 1006.54 2702.44 1007 2788.27 1007H2868.45V1064.36V1121.73L2852.18 1136.87C2811.08 1174.36 2757.1 1202.37 2700.18 1215.01C2681.66 1219.31 2599.9 1219.31 2577.09 1215.01C2532.59 1206.88 2490.13 1190.62 2457.38 1169.16C2437.5 1156.06 2403.62 1123.09 2390.07 1103.44C2368.16 1071.82 2354.61 1039.97 2344.45 996.833C2325.25 915.749 2330.67 823.371 2358.9 755.387C2408.59 635.907 2524.01 565.438 2658.4 571.988C2731.8 575.602 2797.75 602.931 2856.25 653.976C2865.28 661.881 2875.67 668.883 2879.51 669.56C2896.68 673.174 2898.94 671.593 2966.24 606.771C3001.25 573.118 3031.07 543.53 3032.65 540.82C3036.26 534.496 3036.26 517.104 3032.42 510.554C3030.84 507.618 3022.48 499.035 3013.9 491.582C2910.23 401.689 2774.49 351.097 2639.2 352.226C2619.32 352.452 2594.48 353.581 2583.86 354.485Z" fill="#E40707"/>
<path d="M3734.62 355.388C3729.88 357.195 3724.01 360.809 3721.97 363.519C3719.94 366.229 3699.61 414.789 3677.03 471.481C3654.22 528.172 3585.1 700.503 3523.22 854.54C3461.56 1008.58 3387.02 1194.23 3357.66 1267.41C3328.3 1340.37 3304.36 1403.16 3304.36 1406.77C3304.36 1411.06 3306.84 1416.26 3310.91 1420.77L3317.46 1428.23L3424.29 1428.9C3536.09 1429.58 3538.8 1429.36 3547.84 1419.64C3550.55 1416.93 3561.16 1391.86 3571.55 1363.86L3590.75 1313.04H3747.04H3903.34L3924.57 1364.53C3936.09 1392.99 3946.93 1417.84 3948.29 1419.64C3956.42 1429.13 3958.9 1429.36 4067.77 1429.36C4156.3 1429.36 4172.79 1428.9 4178.44 1425.97C4185.21 1422.35 4191.99 1412.19 4191.99 1405.64C4191.99 1402.03 4174.37 1357.76 4055.34 1061.2C4019.66 972.44 3954.61 810.272 3910.79 700.955C3866.98 591.638 3819.09 472.61 3804.64 436.698C3790.18 400.56 3776.86 368.94 3775.05 366.229C3767.37 354.259 3749.98 349.742 3734.62 355.388ZM3752.47 842.57C3754.5 858.154 3774.15 934.043 3784.09 964.083C3792.44 989.605 3833.1 1107.96 3837.16 1118.35C3838.52 1121.96 3839.65 1125.8 3839.65 1126.93C3839.65 1128.06 3803.06 1128.96 3747.04 1128.96C3696.23 1128.96 3654.44 1128.28 3654.44 1127.61C3654.44 1126.93 3667.32 1090.11 3682.9 1045.84C3721.3 937.883 3737.11 884.806 3745.69 836.923C3747.72 825.63 3750.66 827.889 3752.47 842.57Z" fill="#E40707"/>
<path d="M5848.23 356.291C5842.58 359.002 5837.39 363.519 5835.35 367.584C5831.29 375.038 5812.99 420.887 5653.99 817.273C5595.04 964.534 5526.83 1134.16 5502.66 1194.46C5408.02 1429.58 5414.35 1409.93 5428.8 1422.35L5436.71 1429.58L5544.9 1428.9C5650.6 1428.23 5653.08 1428.23 5659.41 1423.48C5666.18 1418.51 5667.99 1414.45 5691.48 1352.56L5706.39 1313.04L5862.46 1312.36L6018.53 1311.91L6020.78 1316.88C6021.91 1319.81 6030.95 1341.95 6040.66 1366.11C6050.37 1390.28 6060.31 1412.87 6062.79 1416.48C6071.6 1429.58 6070.47 1429.36 6184.53 1429.36C6279.4 1429.36 6289.78 1428.9 6294.75 1425.52C6303.56 1419.64 6305.82 1415.35 6306.05 1406.32C6306.05 1397.06 6308.53 1403.38 6219.54 1182.04C6184.08 1093.73 6119.03 931.784 6074.99 821.79C6030.95 711.796 5971.77 564.535 5943.54 494.292C5915.31 424.049 5890.46 364.648 5887.98 361.938C5883.46 357.195 5869.91 352 5862 352C5859.52 352 5853.42 354.033 5848.23 356.291ZM5872.39 862.445C5884.82 918.233 5897.92 960.695 5941.06 1084.69C5949.19 1108.41 5955.96 1127.83 5955.96 1128.28C5955.96 1128.74 5914.4 1128.96 5863.36 1128.96C5800.57 1128.96 5770.76 1128.28 5770.76 1126.7C5770.76 1124.22 5776.18 1108.86 5796.73 1051.04C5832.19 952.564 5844.61 912.812 5857.94 854.992C5861.33 840.537 5864.26 828.792 5864.49 829.018C5864.71 829.47 5868.33 844.376 5872.39 862.445Z" fill="#E40707"/>
<path d="M4402.72 366.455C4398.88 368.262 4393.68 372.553 4391.65 375.941C4387.58 381.814 4387.36 405.529 4386.68 886.387C4386 1442.68 4384.87 1402.03 4400.23 1411.29C4407.46 1415.58 4411.3 1415.8 4504.35 1415.8C4589.28 1415.8 4602.15 1415.35 4608.93 1412.19C4624.06 1404.96 4623.38 1416.26 4623.38 1197.85V999.995L4647.55 1000.67L4671.72 1001.35L4722.76 1080.4C4750.77 1123.99 4801.14 1202.14 4834.56 1254.31C4868.22 1306.26 4903.68 1361.6 4913.61 1376.96C4923.55 1392.54 4934.62 1407.45 4938.01 1409.93C4944.33 1414.67 4946.82 1414.67 5058.39 1415.35C5181.03 1416.03 5181.94 1415.8 5188.26 1404.29C5193.46 1394.35 5191.2 1385.09 5178.55 1365.66C5171.77 1355.27 5137.22 1301.74 5101.76 1246.41C5066.3 1191.07 5012.32 1106.83 4981.6 1059.17C4951.11 1011.29 4926.71 971.536 4927.62 970.633C4928.75 969.955 4936.65 966.567 4945.69 963.179C4987.24 947.369 5023.38 925.009 5055 894.518C5111.92 840.085 5138.8 771.649 5138.8 680.627C5138.8 639.069 5134.51 610.836 5122.54 575.15C5086.62 467.415 4991.99 399.205 4837.27 369.617C4812.88 364.874 4805.65 364.648 4610.96 363.971C4442.02 363.519 4408.82 363.745 4402.72 366.455ZM4844.73 588.476C4863.7 597.737 4883.57 617.612 4892.83 636.585C4899.84 650.588 4900.06 652.169 4900.06 679.498C4900.06 706.827 4899.84 708.408 4892.61 722.863C4883.35 742.062 4865.51 759.679 4845.63 769.842L4830.05 777.748L4726.83 778.425L4623.38 779.103V679.498V579.894L4726.83 580.571L4830.05 581.249L4844.73 588.476Z" fill="#E40707"/>
<path d="M6500.97 381.362C6485.61 390.622 6486.74 346.353 6486.74 903.552C6486.74 1399.77 6486.74 1408.12 6491.25 1415.13C6499.84 1429.58 6498.93 1429.36 6606.9 1429.36C6699.72 1429.36 6705.14 1429.13 6711.92 1424.84C6715.76 1422.58 6720.5 1418.29 6722.08 1415.35C6724.34 1411.06 6725.25 1350.53 6726.15 1100.73L6727.28 791.299L6769.06 848.894C6825.08 926.364 7017.51 1192.88 7104.01 1313.04C7142.64 1366.57 7176.06 1412.87 7178.55 1416.26C7188.26 1429.36 7188.71 1429.36 7295.77 1429.36C7386.57 1429.36 7394.02 1429.13 7399.89 1425.29C7403.28 1423.03 7407.57 1419.19 7409.38 1416.71C7414.35 1410.16 7414.35 400.108 7409.38 390.622C7402.6 377.07 7400.12 376.845 7295.32 376.845C7193.91 376.845 7193.68 376.845 7183.52 388.138C7179 393.107 7179 397.172 7177.87 703.439L7176.74 1014L7157.54 987.346C7128.63 946.691 7081.43 881.643 7009.6 783.394C6920.39 661.203 6790.29 482.322 6750.99 427.889C6726.15 393.558 6716.89 382.265 6711.24 380.007C6705.14 377.522 6684.14 376.845 6605.99 376.845C6512.94 376.845 6507.74 377.07 6500.97 381.362Z" fill="#E40707"/>
<path d="M7622.81 484.129V586.895H7756.07H7889.33V1001.35V1415.58L7896.33 1423.48C7900.17 1428 7906.95 1432.52 7911.46 1433.87C7923.21 1437.04 8089.89 1436.81 8102.77 1433.65C8108.19 1432.29 8115.19 1428.23 8119.03 1424.39L8125.35 1417.84L8126.48 1002.93L8127.61 588.025L8260.42 587.347L8393 586.895V484.129V381.362H8007.91H7622.81V484.129Z" fill="#E40707"/>
</svg>
